<svg xmlns="http://www.w3.org/2000/svg" version="1.1" xmlns:xlink="http://www.w3.org/1999/xlink" xmlns:svgjs="http://svgjs.dev/svgjs" width="1000" height="623" viewBox="0 0 1000 623"><g transform="matrix(1,0,0,1,-0.6060194927982252,0.2522267206477409)"><svg viewBox="0 0 396 247" data-background-color="#ffffff" preserveAspectRatio="xMidYMid meet" height="623" width="1000" xmlns="http://www.w3.org/2000/svg" xmlns:xlink="http://www.w3.org/1999/xlink"><g id="tight-bounds" transform="matrix(1,0,0,1,0.2399837229336299,-0.09999999999999432)"><svg viewBox="0 0 395.52 247.2" height="247.2" width="395.52"><g><svg></svg></g><g><svg viewBox="0 0 395.52 247.2" height="247.2" width="395.52"><g><g><path xmlns="http://www.w3.org/2000/svg" d="M82.376 19.451h32.793l22.684 58.063-31.198 0-8.49-22.233h-1.821l-8.557 22.233-28.095 0zM196.545 227.749h-32.186l-17.611-45.242h-99.594l-17.308 45.242h-28.846l22.684-58.063 150.178 0zM280.351 19.451h32.793l22.684 58.063-31.199 0-8.489-22.233h-1.822l-8.556 22.233-28.095 0zM394.52 227.749h-32.186l-17.611-45.242h-99.595l-17.307 45.242h-28.846l22.683-58.063 150.178 0z" fill="#a437db" fill-rule="nonzero" stroke="none" stroke-width="1" stroke-linecap="butt" stroke-linejoin="miter" stroke-miterlimit="10" stroke-dasharray="" stroke-dashoffset="0" font-family="none" font-weight="none" font-size="none" text-anchor="none" style="mix-blend-mode: normal" data-fill-palette-color="tertiary"></path></g></g><g transform="matrix(1,0,0,1,0,84.05656248724469)"><svg viewBox="0 0 395.52 79.08687502551061" height="79.08687502551061" width="395.52"><g><svg viewBox="0 0 395.52 79.08687502551061" height="79.08687502551061" width="395.52"><g><svg viewBox="0 0 395.52 79.08687502551061" height="79.08687502551061" width="395.52"><g><svg viewBox="0 0 395.52 79.08687502551061" height="79.08687502551061" width="395.52"><g id="textblocktransform"><svg viewBox="0 0 395.52 79.08687502551061" height="79.08687502551061" width="395.52" id="textblock"><g><svg viewBox="0 0 395.52 44.835761078998075" height="44.835761078998075" width="395.52"><g transform="matrix(1,0,0,1,0,0)"><svg width="395.52" viewBox="0.20000000298023224 -34.79999923706055 311.3799743652344 35.29999923706055" height="44.835761078998075" data-palette-color="#a437db"><path d="M13.6-34.3L19-34.3 32.4 0 27.1 0 24.2-7.45 7.8-7.45 4.95 0 0.2 0 13.6-34.3ZM22.5-11.9L16.2-28.4 15.9-28.4 9.55-11.9 22.5-11.9ZM48.3-34.8Q53.95-34.8 57.17-32.3 60.4-29.8 60.4-25.2L60.4-25.2 60.4-24.6 55.5-24.6 55.5-25.35Q55.5-27.75 53.55-29.05 51.6-30.35 48.4-30.35L48.4-30.35Q44.85-30.35 42.87-29.18 40.9-28 40.9-25.8L40.9-25.8Q40.9-24.15 42.02-23.1 43.15-22.05 44.82-21.45 46.5-20.85 49.45-20.1L49.45-20.1Q53.25-19.1 55.6-18.15 57.95-17.2 59.62-15.3 61.3-13.4 61.3-10.25L61.3-10.25Q61.3-4.65 57.87-2.08 54.45 0.5 48.25 0.5L48.25 0.5Q42.05 0.5 38.62-2.13 35.2-4.75 35.2-9.75L35.2-9.75 35.25-10.75 40.15-10.75 40.1-9.7Q40.1-6.8 42.27-5.38 44.45-3.95 48.3-3.95L48.3-3.95Q52.05-3.95 54.22-5.33 56.4-6.7 56.4-9.1L56.4-9.1Q56.4-11 55.22-12.18 54.05-13.35 52.27-14 50.5-14.65 47.45-15.45L47.45-15.45Q43.7-16.45 41.45-17.35 39.2-18.25 37.6-20.13 36-22 36-25.05L36-25.05Q36-30 39.35-32.4 42.7-34.8 48.3-34.8L48.3-34.8ZM89.1-34.3L94-34.3 94 0 89.1 0 89.1-15.3 73.45-15.3 73.45 0 68.55 0 68.55-34.3 73.45-34.3 73.45-19.75 89.1-19.75 89.1-34.3ZM128.29-34.3L128.29-10.95Q128.29-7.55 126.77-4.95 125.24-2.35 122.42-0.93 119.59 0.5 115.89 0.5L115.89 0.5 115.24 0.5Q111.54 0.5 108.77-0.9 105.99-2.3 104.44-4.9 102.89-7.5 102.89-10.95L102.89-10.95 102.89-34.3 107.79-34.3 107.79-11.05Q107.79-7.85 110.02-5.9 112.24-3.95 115.69-3.95L115.69-3.95Q119.24-3.95 121.32-5.9 123.39-7.85 123.39-11.05L123.39-11.05 123.39-34.3 128.29-34.3ZM158.39-34.3L163.79-34.3 177.19 0 171.89 0 168.99-7.45 152.59-7.45 149.74 0 144.99 0 158.39-34.3ZM167.29-11.9L160.99-28.4 160.69-28.4 154.34-11.9 167.29-11.9ZM194.58-34.8Q198.58-34.8 201.58-33.15 204.58-31.5 206.21-28.43 207.83-25.35 207.83-21.15L207.83-21.15 202.94-21.15Q202.94-25.5 200.78-27.93 198.63-30.35 194.58-30.35L194.58-30.35Q190.08-30.35 187.73-27.58 185.38-24.8 185.38-19.4L185.38-19.4 185.38-14.9Q185.38-9.55 187.69-6.75 189.98-3.95 194.48-3.95L194.48-3.95Q198.69-3.95 200.91-6.35 203.13-8.75 203.13-13.05L203.13-13.05 207.83-13.05Q207.83-8.9 206.21-5.85 204.58-2.8 201.58-1.15 198.58 0.5 194.58 0.5L194.58 0.5Q187.94 0.5 184.21-3.58 180.48-7.65 180.48-14.9L180.48-14.9 180.48-19.4Q180.48-26.6 184.21-30.7 187.94-34.8 194.58-34.8L194.58-34.8ZM235.68-34.3L240.58-34.3 240.58 0 235.68 0 235.68-15.3 220.03-15.3 220.03 0 215.13 0 215.13-34.3 220.03-34.3 220.03-19.75 235.68-19.75 235.68-34.3ZM274.88-34.3L274.88-10.95Q274.88-7.55 273.36-4.95 271.83-2.35 269-0.93 266.18 0.5 262.48 0.5L262.48 0.5 261.83 0.5Q258.13 0.5 255.36-0.9 252.58-2.3 251.03-4.9 249.48-7.5 249.48-10.95L249.48-10.95 249.48-34.3 254.38-34.3 254.38-11.05Q254.38-7.85 256.61-5.9 258.83-3.95 262.28-3.95L262.28-3.95Q265.83-3.95 267.91-5.9 269.98-7.85 269.98-11.05L269.98-11.05 269.98-34.3 274.88-34.3ZM292.78-34.3L298.18-34.3 311.58 0 306.28 0 303.38-7.45 286.98-7.45 284.13 0 279.38 0 292.78-34.3ZM301.68-11.9L295.38-28.4 295.08-28.4 288.73-11.9 301.68-11.9Z" opacity="1" transform="matrix(1,0,0,1,0,0)" fill="#a437db" class="undefined-text-0" data-fill-palette-color="primary" id="text-0"></path></svg></g></svg></g><g transform="matrix(1,0,0,1,0,51.37837467868979)"><svg viewBox="0 0 395.52 27.70850034682081" height="27.70850034682081" width="395.52"><g transform="matrix(1,0,0,1,0,0)"><svg width="395.52" viewBox="-0.24000000953674316 -37.66800308227539 554.3999633789062 38.83800506591797" height="27.70850034682081" data-palette-color="#bb84e8"><path d="M10.99-13.33L10.99-13.33Q11.08-13.09 11.72-12.28 12.35-11.47 13.16-10.52 13.96-9.57 14.75-8.69 15.53-7.81 15.82-7.42L15.82-7.42Q16.75-6.05 17.72-4.74 18.7-3.42 19.58-2L19.58-2Q19.82-1.76 19.97-1.39 20.12-1.03 20.12-0.63L20.12-0.63Q20.12-0.2 19.9-0.17 19.68-0.15 19.43-0.05L19.43-0.05Q18.95 0.29 18.55 0.34 18.16 0.39 17.92 0.39L17.92 0.39Q17.38 0.39 16.75 0.37 16.11 0.34 15.67 0.44L15.67 0.44Q15.53 0.49 15.33 0.61 15.14 0.73 15.04 0.73L15.04 0.73Q14.65 0.73 14.48 0.61 14.31 0.49 14.01 0.39L14.01 0.39Q13.62-0.05 13.31-0.54 12.99-1.03 12.65-1.51L12.65-1.51Q12.35-1.86 12.01-2.12 11.67-2.39 11.38-2.78L11.38-2.78Q10.6-3.91 9.79-4.93 8.98-5.96 8.15-6.98L8.15-6.98Q7.76-7.52 7.3-8.01 6.84-8.5 6.45-8.98L6.45-8.98Q6.05-9.52 5.71-10.11 5.37-10.69 4.98-11.23L4.98-11.23Q4.69-11.72 4.15-12.43 3.61-13.13 3.03-13.87 2.44-14.6 1.83-15.26 1.22-15.92 0.78-16.26L0.78-16.26Q0.78-16.6 0.59-16.75 0.39-16.89 0.15-17.09L0.15-17.09Q0.05-17.33-0.1-17.55-0.24-17.77-0.24-18.07L-0.24-18.07Q-0.24-18.26-0.2-18.41-0.15-18.55-0.1-18.7L-0.1-18.7Q0-18.9 0.02-19.07 0.05-19.24 0.15-19.43L0.15-19.43Q0.39-20.07 0.85-20.56 1.32-21.04 1.56-21.68L1.56-21.68Q1.61-21.88 1.61-22.05 1.61-22.22 1.71-22.41L1.71-22.41Q1.86-22.71 2.15-23 2.44-23.29 2.69-23.63L2.69-23.63Q2.93-24.07 3.17-24.51 3.42-24.95 3.66-25.39L3.66-25.39Q4.35-26.51 5.18-27.56 6.01-28.61 6.74-29.64L6.74-29.64Q7.42-30.62 8.01-31.57 8.59-32.52 9.28-33.5L9.28-33.5Q9.62-33.98 10.06-34.59 10.5-35.21 10.96-35.79 11.43-36.38 11.91-36.89 12.4-37.4 12.89-37.65L12.89-37.65Q13.72-37.74 13.96-37.38 14.21-37.01 14.65-37.01L14.65-37.01Q15.33-36.87 15.58-36.57 15.82-36.28 16.06-36.04L16.06-36.04Q16.7-36.04 17.14-35.79 17.58-35.55 18.02-35.06L18.02-35.06Q17.82-34.52 17.5-34.08 17.19-33.64 16.94-33.15L16.94-33.15Q16.55-33.01 16.38-32.67 16.21-32.32 15.87-32.08L15.87-32.08Q15.33-31.25 14.79-30.44 14.26-29.64 13.72-28.91L13.72-28.91Q13.48-28.61 13.16-28.44 12.84-28.27 12.65-27.93L12.65-27.93Q12.55-27.78 12.5-27.61 12.45-27.44 12.35-27.29L12.35-27.29Q11.77-26.37 11.04-25.49 10.3-24.61 9.77-23.63L9.77-23.63Q9.52-23.29 9.38-22.92 9.23-22.56 9.03-22.22L9.03-22.22Q8.84-21.92 8.47-21.39 8.11-20.85 7.74-20.29 7.37-19.73 7.1-19.21 6.84-18.7 6.84-18.36L6.84-18.36Q6.88-18.12 7.47-17.38 8.06-16.65 8.76-15.82 9.47-14.99 10.13-14.26 10.79-13.53 10.99-13.33ZM77.08-8.35L77.08-8.35Q77.42-7.91 77.49-7.64 77.57-7.37 77.66-7.1 77.76-6.84 77.84-6.59 77.91-6.35 77.91-6.3L77.91-6.3Q77.91-5.96 77.79-5.74 77.66-5.52 77.42-5.18L77.42-5.18Q75.47-4.44 73.56-3.74 71.66-3.03 69.66-2.34L69.66-2.34Q69.12-2.2 68.68-2.03 68.24-1.86 67.7-1.76L67.7-1.76Q67.61-1.66 67.39-1.59 67.17-1.51 66.87-1.42 66.58-1.32 66.31-1.25 66.04-1.17 65.95-1.17L65.95-1.17Q65.55-1.07 65.09-1.1 64.63-1.12 64.19-1.07L64.19-1.07Q63.94-1.03 63.85-0.83 63.75-0.63 63.63-0.42 63.5-0.2 63.26-0.02 63.02 0.15 62.58 0.15L62.58 0.15Q62.14 0.15 61.7 0.1 61.26 0.05 60.77-0.15L60.77-0.15Q60.67-0.29 60.7-0.51 60.72-0.73 60.62-0.88L60.62-0.88Q60.18-0.93 59.94-0.81 59.7-0.68 59.45-0.63L59.45-0.63Q59.3-0.83 59.23-1.1 59.16-1.37 58.96-1.56L58.96-1.56Q58.91-1.81 58.91-2.05 58.91-2.29 58.91-2.54L58.91-2.54Q58.91-2.88 58.94-3.34 58.96-3.81 59.11-4.05L59.11-4.05Q59.26-6.84 59.26-9.64 59.26-12.45 59.26-15.23L59.26-15.23Q59.26-15.48 59.26-15.94 59.26-16.41 59.23-16.89 59.21-17.38 59.18-17.8 59.16-18.21 59.11-18.41L59.11-18.41Q59.16-18.75 59.16-19.07 59.16-19.38 59.16-19.73L59.16-19.73Q59.16-20.02 59.16-20.26 59.16-20.51 59.06-20.75L59.06-20.75Q59.11-20.95 59.11-21.29L59.11-21.29Q59.11-21.53 59.06-21.78 59.01-22.02 59.01-22.27L59.01-22.27Q59.01-22.66 59.04-23.02 59.06-23.39 59.06-23.78L59.06-23.78Q59.06-25.05 58.94-26.29 58.82-27.54 58.82-28.81L58.82-28.81Q58.82-30.47 58.79-32.13 58.77-33.79 58.72-35.45L58.72-35.45Q58.91-35.94 58.91-36.28L58.91-36.28Q59.6-36.62 59.99-36.52 60.38-36.43 60.77-36.43L60.77-36.43Q61.01-36.43 61.21-36.47 61.4-36.52 61.6-36.62L61.6-36.62Q61.84-36.57 62.01-36.5 62.19-36.43 62.43-36.43L62.43-36.43Q63.16-36.57 63.24-36.47 63.31-36.38 63.46-36.28L63.46-36.28Q63.65-36.33 63.77-36.45 63.89-36.57 64.09-36.57L64.09-36.57Q64.38-36.57 64.53-36.21 64.68-35.84 64.87-35.6L64.87-35.6Q64.87-35.06 65.07-34.62L65.07-34.62Q65.16-32.62 65.14-30.66 65.12-28.71 65.26-26.76L65.26-26.76Q65.31-25.88 65.38-24.93 65.46-23.97 65.46-23.1L65.46-23.1Q65.46-21.63 65.48-20.14 65.51-18.65 65.51-17.14L65.51-17.14Q65.51-16.89 65.53-16.7 65.55-16.5 65.55-16.26L65.55-16.26Q65.55-15.67 65.51-15.14 65.46-14.6 65.46-14.06L65.46-14.06 65.46-10.25Q65.46-9.77 65.43-9.25 65.41-8.74 65.46-8.25L65.46-8.25 65.65-7.67Q66.19-7.86 66.75-8.08 67.31-8.3 67.95-8.4L67.95-8.4Q68.34-8.5 68.68-8.59 69.02-8.69 69.41-8.79L69.41-8.79Q70.1-9.18 70.49-9.33 70.88-9.47 71.27-9.62L71.27-9.62Q72.1-9.91 72.88-10.23 73.66-10.55 74.49-10.84L74.49-10.84Q74.88-10.74 75.13-10.94L75.13-10.94Q75.61-10.84 76-10.84L76-10.84Q76.54-10.3 76.66-10.01 76.79-9.72 77.03-9.47L77.03-9.47Q76.93-9.23 77.05-9.18 77.18-9.13 77.22-8.94L77.22-8.94Q77.42-8.84 77.27-8.67 77.13-8.5 77.08-8.35ZM133.7-6.84L133.7-6.84Q134.09-6.2 134.28-5.62 134.48-5.03 134.48-4.79L134.48-4.79Q134.48-4.44 134.36-4.22 134.23-4 134.04-3.76L134.04-3.76Q132.09-2.93 130.16-2.22 128.23-1.51 126.23-0.83L126.23-0.83Q125.74-0.68 125.28-0.51 124.81-0.34 124.27-0.24L124.27-0.24Q124.18-0.15 123.93-0.05 123.69 0.05 123.37 0.15 123.05 0.24 122.76 0.32 122.47 0.39 122.37 0.39L122.37 0.39Q122.27 0.15 122.17 0.1 122.08 0.05 121.98 0L121.98 0Q121.73 0 121.66 0.17 121.59 0.34 121.34 0.44L121.34 0.44Q121.1 0.44 120.9 0.46 120.71 0.49 120.56 0.39L120.56 0.39Q120.17 0.49 119.86 0.73 119.54 0.98 119.15 1.07L119.15 1.07Q118.41 0.88 118.24 0.9 118.07 0.93 117.88 0.98L117.88 0.98Q117.54 0.68 117.56 0.15 117.58-0.39 117.29-0.73L117.29-0.73Q117.29-1.37 117.19-1.44 117.1-1.51 117.1-1.61L117.1-1.61Q117.1-1.95 117.15-2.25 117.19-2.54 117.1-2.88L117.1-2.88Q117.29-3.71 117.24-4.49 117.19-5.27 117.29-6.05L117.29-6.05Q117.29-6.3 117.32-6.52 117.34-6.74 117.34-6.98L117.34-6.98Q117.34-7.71 117.44-7.89 117.54-8.06 117.54-8.3L117.54-8.3Q117.54-8.64 117.51-8.96 117.49-9.28 117.49-9.67L117.49-9.67Q117.49-10.35 117.51-11.01 117.54-11.67 117.54-12.4L117.54-12.4Q117.54-14.26 117.29-16.11 117.05-17.97 117.05-19.82L117.05-19.82Q117.05-22.07 116.8-24.27 116.56-26.46 116.56-28.71L116.56-28.71Q116.56-29.1 116.56-29.81 116.56-30.52 116.56-31.27 116.56-32.03 116.58-32.71 116.61-33.4 116.66-33.69L116.66-33.69Q116.66-33.74 116.95-33.84 117.24-33.94 117.34-33.94L117.34-33.94Q117.58-33.94 117.73-33.81 117.88-33.69 118.07-33.59L118.07-33.59Q118.95-33.69 119.12-33.76 119.29-33.84 119.39-33.84L119.39-33.84Q119.68-33.84 119.86-33.69 120.03-33.54 120.12-33.54L120.12-33.54Q120.95-33.74 121.03-33.59 121.1-33.45 121.34-33.45L121.34-33.45Q121.98-33.64 122.13-33.59 122.27-33.54 122.42-33.54L122.42-33.54Q122.66-33.54 122.96-33.72 123.25-33.89 123.49-33.98L123.49-33.98Q124.32-34.23 124.86-34.47L124.86-34.47Q125.59-34.91 125.96-35.06 126.32-35.21 126.72-35.4L126.72-35.4Q127.55-35.74 128.3-36.11 129.06-36.47 129.89-36.87L129.89-36.87Q130.04-36.87 130.21-36.89 130.38-36.91 130.48-37.01L130.48-37.01Q130.62-36.96 130.79-36.96 130.96-36.96 131.11-36.96L131.11-36.96Q131.6-36.77 131.74-36.72L131.74-36.72Q131.94-36.43 132.11-36.16 132.28-35.89 132.53-35.64L132.53-35.64Q132.77-35.21 132.92-35.21L132.92-35.21Q132.92-35.06 132.77-34.89 132.62-34.72 132.62-34.57L132.62-34.57Q133.01-33.89 133.26-33.3 133.5-32.71 133.5-32.47L133.5-32.47Q133.5-32.13 133.4-31.91 133.31-31.69 133.16-31.45L133.16-31.45Q131.31-30.57 129.43-29.71 127.55-28.86 125.59-28.03L125.59-28.03Q125.1-27.83 124.66-27.61 124.23-27.39 123.69-27.29L123.69-27.29Q123.59-27.2 123.25-27.12 122.91-27.05 122.71-27.05L122.71-27.05Q122.81-26.22 122.83-25.42 122.86-24.61 122.91-23.78L122.91-23.78Q122.96-23.1 123.08-22.34 123.2-21.58 123.3-20.85L123.3-20.85Q124.91-21.53 126.5-22.22 128.08-22.9 129.69-23.58L129.69-23.58Q129.99-23.54 130.3-23.49 130.62-23.44 130.91-23.34L130.91-23.34Q131.01-23.24 131.11-23.1 131.21-22.95 131.35-22.85L131.35-22.85Q131.31-22.61 131.67-22.12 132.04-21.63 132.04-21.39L132.04-21.39Q132.04-21 132.14-20.92 132.23-20.85 132.33-20.51L132.33-20.51Q132.38-20.02 132.33-19.97L132.33-19.97Q132.57-19.73 132.72-19.48 132.87-19.24 132.87-18.9L132.87-18.9Q132.18-18.07 131.5-17.8 130.82-17.53 130.13-17.24L130.13-17.24Q129.89-17.14 129.62-16.97 129.35-16.8 129.11-16.7L129.11-16.7Q128.72-16.55 128.35-16.43 127.98-16.31 127.59-16.11L127.59-16.11Q126.96-15.77 126.3-15.36 125.64-14.94 124.96-14.79L124.96-14.79Q124.42-14.65 124.25-14.48 124.08-14.31 123.69-14.01L123.69-14.01 123.69-12.7 123.69-10.25Q123.69-9.77 123.69-9.25 123.69-8.74 123.64-8.2L123.64-8.2Q123.54-7.71 123.54-7.37L123.54-7.37 123.54-6.59Q123.79-6.69 124.03-6.76 124.27-6.84 124.52-6.93L124.52-6.93Q124.71-6.98 124.88-6.98 125.06-6.98 125.25-7.08L125.25-7.08Q125.49-7.13 125.64-7.18 125.79-7.23 125.98-7.32L125.98-7.32Q126.72-7.71 127.11-7.84 127.5-7.96 127.89-8.11L127.89-8.11Q128.72-8.4 129.5-8.72 130.28-9.03 131.06-9.33L131.06-9.33Q131.55-9.23 131.74-9.47L131.74-9.47Q131.99-9.42 132.16-9.38 132.33-9.33 132.57-9.33L132.57-9.33Q133.16-8.79 133.31-8.5 133.45-8.2 133.7-7.96L133.7-7.96Q133.94-7.52 134.04-7.52L134.04-7.52Q134.04-7.42 133.89-7.2 133.75-6.98 133.7-6.84ZM177.38-0.63L177.04-0.78Q176.89-0.68 176.74-0.59 176.6-0.49 176.45-0.39L176.45-0.39Q175.91-0.1 175.47-0.07 175.03-0.05 174.5 0.44L174.5 0.44Q174.3 0.2 174.2 0.2 174.11 0.2 173.86 0.2L173.86 0.2Q173.23 0.2 173.13-0.15L173.13-0.15Q172.93-0.1 172.52 0.1 172.1 0.29 171.91 0.39L171.91 0.39Q172.35-0.24 172.5-0.59 172.64-0.93 172.67-1.22 172.69-1.51 172.71-1.83 172.74-2.15 172.93-2.73L172.93-2.73Q173.03-2.93 173.08-3.13 173.13-3.32 173.23-3.56L173.23-3.56Q173.47-4.3 173.64-5.22 173.81-6.15 174.2-6.84L174.2-6.84Q174.2-7.67 174.57-8.4 174.94-9.13 175.18-9.91L175.18-9.91Q175.28-10.21 175.45-10.5 175.62-10.79 175.72-11.08L175.72-11.08Q175.91-11.57 176.04-12.04 176.16-12.5 176.3-12.94L176.3-12.94Q176.69-14.36 177.08-15.75 177.48-17.14 177.82-18.55L177.82-18.55Q177.87-18.8 177.94-19.09 178.01-19.38 178.11-19.63L178.11-19.63Q178.35-20.36 178.43-21.12 178.5-21.88 178.89-22.56L178.89-22.56Q178.84-22.9 178.92-23.19 178.99-23.49 179.09-23.83 179.18-24.17 179.28-24.46 179.38-24.76 179.43-24.9L179.43-24.9Q179.67-25.54 179.79-26.05 179.92-26.56 180.31-27.15L180.31-27.15Q180.31-27.15 180.45-27.66 180.6-28.17 180.8-28.81 180.99-29.44 181.14-30 181.28-30.57 181.28-30.66L181.28-30.66Q181.38-31.05 181.45-31.4 181.53-31.74 181.63-32.13L181.63-32.13Q181.72-32.37 181.82-32.54 181.92-32.71 182.02-32.96L182.02-32.96Q182.16-33.5 182.31-34.28 182.46-35.06 182.7-35.5L182.7-35.5Q182.85-35.84 183.26-36.06 183.68-36.28 183.97-36.52L183.97-36.52Q184.85-36.43 185.26-36.62 185.68-36.82 186.07-37.11L186.07-37.11Q186.31-37.06 186.53-36.99 186.75-36.91 187-36.91L187-36.91Q187.92-35.89 188.29-34.81 188.66-33.74 189-32.67L189-32.67Q189.15-32.13 189.29-31.62 189.44-31.1 189.63-30.62L189.63-30.62Q189.68-30.47 189.78-30.3 189.88-30.13 189.98-29.93L189.98-29.93Q190.22-29.54 190.39-29.1 190.56-28.66 190.71-28.22L190.71-28.22Q191-27.88 191.15-27.42 191.29-26.95 191.42-26.49 191.54-26.03 191.68-25.61 191.83-25.2 192.12-24.9L192.12-24.9Q192.22-24.37 192.47-23.85 192.71-23.34 192.81-22.75L192.81-22.75Q193.1-22.36 193.49-21.26 193.88-20.17 194.27-18.9 194.66-17.63 195-16.46 195.35-15.28 195.49-14.79L195.49-14.79Q195.59-14.4 195.88-13.79 196.18-13.18 196.42-12.7L196.42-12.7Q196.62-12.16 196.84-11.57 197.06-10.99 197.2-10.45L197.2-10.45Q197.3-9.91 197.42-9.42 197.54-8.94 197.69-8.4L197.69-8.4Q197.79-8.06 197.98-7.79 198.18-7.52 198.28-7.13L198.28-7.13Q198.47-6.74 198.54-6.4 198.62-6.05 198.86-5.66L198.86-5.66Q198.81-5.13 198.91-4.98 199.01-4.83 199.11-4.64L199.11-4.64Q199.3-3.61 199.55-3 199.79-2.39 199.79-1.71L199.79-1.71Q199.79-1.12 199.57-0.98 199.35-0.83 199.01-0.49L199.01-0.49Q198.62-0.15 198.35 0.05 198.08 0.24 197.54 0.24L197.54 0.24Q196.96 0.2 196.84 0.42 196.71 0.63 196.66 0.73L196.66 0.73Q196.08 0.68 195.91 0.71 195.74 0.73 195.57 0.73 195.4 0.73 195.22 0.81 195.05 0.88 194.86 1.12L194.86 1.12Q194.52 0.73 194.2 0.42 193.88 0.1 193.64-0.29L193.64-0.29Q193.64-1.12 193.42-2.25 193.2-3.37 192.95-4L192.95-4Q192.47-5.27 192.05-6.49 191.64-7.71 191.25-8.98L191.25-8.98Q191.1-9.52 190.93-9.96 190.76-10.4 190.56-10.89L190.56-10.89Q190.66-10.5 190.63-10.08 190.61-9.67 190.37-9.28L190.37-9.28Q190.27-9.18 190.07-9.03 189.88-8.89 189.88-8.79L189.88-8.79Q189.29-8.3 188.85-7.86L188.85-7.86Q188.9-6.98 188.61-6.64 188.32-6.3 187.97-6.01L187.97-6.01Q187.14-5.96 186.95-6.1 186.75-6.25 186.41-6.3L186.41-6.3Q186.22-6.35 186.02-6.32 185.83-6.3 185.63-6.3L185.63-6.3Q185.24-6.3 184.9-6.49L184.9-6.49Q184.75-6.59 184.68-6.69 184.6-6.79 184.51-6.88L184.51-6.88Q184.12-7.28 183.6-7.54 183.09-7.81 182.6-8.01L182.6-8.01Q182.21-8.35 181.8-8.72 181.38-9.08 180.94-9.33L180.94-9.33Q180.55-8.4 180.33-7.69 180.11-6.98 179.82-6.3L179.82-6.3Q179.28-4.64 178.94-3.39 178.6-2.15 178.16-0.88L178.16-0.88Q177.96-0.83 177.79-0.73 177.62-0.63 177.38-0.63L177.38-0.63ZM181.63-11.18L181.82-11.18Q182.21-11.87 182.53-11.94 182.85-12.01 183.09-12.3L183.09-12.3Q183.19-12.4 183.31-12.55 183.43-12.7 183.58-12.84L183.58-12.84Q183.73-12.94 183.92-13.04 184.12-13.13 184.26-13.28L184.26-13.28Q184.65-13.62 184.92-13.87 185.19-14.11 185.73-14.11L185.73-14.11Q186.56-14.11 187.09-13.7 187.63-13.28 188.41-13.13L188.41-13.13Q188.51-12.84 189.05-12.72 189.58-12.6 189.88-12.4L189.88-12.4Q189.39-13.62 189.12-14.87 188.85-16.11 188.46-17.33L188.46-17.33Q188.17-18.41 187.78-19.46 187.39-20.51 187-21.48L187-21.48Q186.66-22.46 186.41-23.39 186.17-24.32 185.78-25.2L185.78-25.2Q185.39-24.32 185-23.05 184.6-21.78 184.41-20.8L184.41-20.8Q184.41-20.36 184.36-20.12L184.36-20.12Q184.26-19.78 184.16-19.51 184.07-19.24 183.97-18.95L183.97-18.95Q183.33-17.04 182.82-15.09 182.31-13.13 181.63-11.18L181.63-11.18ZM259.49-36.67L259.49-36.67Q260.02-36.67 260.27-36.52L260.27-36.52Q260.51-36.04 260.58-35.67 260.66-35.3 260.66-34.81L260.66-34.81Q260.71-34.08 260.68-33.76 260.66-33.45 260.61-33.11L260.61-33.11Q260.56-32.32 260.56-31.62 260.56-30.91 260.56-30.13L260.56-30.13Q260.56-28.42 260.61-26.66 260.66-24.9 260.66-23.19L260.66-23.19Q260.66-22.51 260.63-21.85 260.61-21.19 260.61-20.51L260.61-20.51Q260.61-20.36 260.63-20.19 260.66-20.02 260.66-19.87L260.66-19.87Q260.66-19.43 260.63-19.02 260.61-18.6 260.61-18.21L260.61-18.21Q260.61-18.02 260.61-17.87 260.61-17.72 260.66-17.48L260.66-17.48Q260.56-17.09 260.56-16.94L260.56-16.94Q260.56-16.16 260.61-15.36 260.66-14.55 260.66-13.77L260.66-13.77Q260.66-13.04 260.68-12.35 260.71-11.67 260.71-10.94L260.71-10.94Q260.71-10.55 260.68-10.11 260.66-9.67 260.66-9.23L260.66-9.23Q260.66-8.2 260.71-7.15 260.76-6.1 260.8-5.08L260.8-5.08Q260.8-4.39 260.8-3.74 260.8-3.08 260.9-2.39L260.9-2.39Q260.9-1.61 260.83-1.25 260.76-0.88 260.66-0.54L260.66-0.54Q260.27-0.44 260.14-0.46 260.02-0.49 259.88-0.49L259.88-0.49Q259.19-0.29 259-0.12 258.8 0.05 258.56 0.24L258.56 0.24Q258.36 0.24 258.09 0.27 257.83 0.29 257.68 0.44L257.68 0.44Q257.43 0.34 257.29 0.39 257.14 0.44 257 0.44L257 0.44Q256.31 0.49 256.07 0.61 255.82 0.73 255.38 0.73L255.38 0.73Q254.99 0.1 254.8-0.27 254.6-0.63 254.16-0.59L254.16-0.59Q253.53-1.56 253.26-2.64 252.99-3.71 252.36-4.59L252.36-4.59Q252.31-4.98 252.21-5.08 252.11-5.18 252.01-5.47L252.01-5.47Q251.82-5.86 251.67-6.3 251.53-6.74 251.28-7.13L251.28-7.13Q250.89-7.96 250.5-8.76 250.11-9.57 249.77-10.45L249.77-10.45Q249.62-10.84 249.52-11.25 249.43-11.67 249.28-12.06L249.28-12.06Q249.18-12.26 249.06-12.45 248.94-12.65 248.84-12.79L248.84-12.79Q248.55-13.33 248.28-13.87 248.01-14.4 247.67-14.94L247.67-14.94Q247.57-15.19 247.4-15.41 247.23-15.63 247.03-15.87L247.03-15.87Q246.89-16.21 246.77-16.55 246.64-16.89 246.5-17.24L246.5-17.24Q246.4-17.53 246.2-17.85 246.01-18.16 245.91-18.46L245.91-18.46Q245.81-18.7 245.76-18.95 245.72-19.19 245.47-19.38L245.47-19.38Q245.13-18.8 245.13-18.6L245.13-18.6Q245.08-18.02 245.06-17.65 245.03-17.29 245.03-16.99L245.03-16.99Q245.03-16.65 245.11-16.33 245.18-16.02 245.18-15.72L245.18-15.72Q245.28-14.55 245.33-13.35 245.37-12.16 245.37-10.99L245.37-10.99Q245.33-10.06 245.35-9.57 245.37-9.08 245.42-8.59L245.42-8.59Q245.47-8.11 245.45-7.59 245.42-7.08 245.47-6.59L245.47-6.59Q245.47-5.47 245.5-4.42 245.52-3.37 245.52-2.25L245.52-2.25 245.52-1.07Q245.52-0.54 245.37-0.1L245.37-0.1Q244.64-0.1 244.42-0.15 244.2-0.2 243.96-0.29L243.96-0.29Q243.67-0.24 243.49-0.07 243.32 0.1 243.08 0.24L243.08 0.24Q242.54 0.2 242.49 0.27 242.44 0.34 242.3 0.44L242.3 0.44Q242.15 0.49 242.03 0.44 241.91 0.39 241.76 0.39L241.76 0.39Q241.37 0.29 241.13 0.29L241.13 0.29Q240.83 0.39 240.56 0.49 240.3 0.59 240 0.63L240 0.63Q239.71 0.1 239.66-0.63 239.61-1.37 239.27-1.9L239.27-1.9Q239.37-2.1 239.39-2.15 239.42-2.2 239.42-2.44L239.42-2.44Q239.42-3.56 239.37-4.69 239.32-5.81 239.32-6.93L239.32-6.93Q239.32-7.86 239.2-8.74 239.08-9.62 239.08-10.55L239.08-10.55Q239.08-10.84 239.12-11.13 239.17-11.43 239.17-11.77L239.17-11.77Q239.17-11.91 239.15-12.06 239.12-12.21 239.12-12.3L239.12-12.3Q239.03-13.18 239-14.11 238.98-15.04 238.98-15.97L238.98-15.97Q238.93-16.5 238.9-17.09 238.88-17.68 238.88-18.31L238.88-18.31Q238.88-18.55 238.93-18.85 238.98-19.14 238.98-19.43L238.98-19.43 238.98-21.48Q238.88-22.07 238.9-22.27 238.93-22.46 238.93-22.66L238.93-22.66Q238.93-23.1 238.86-23.51 238.78-23.93 238.78-24.41L238.78-24.41Q238.78-24.76 238.86-25.07 238.93-25.39 238.93-25.73L238.93-25.73Q238.93-26.46 238.86-27.15 238.78-27.83 238.78-28.56L238.78-28.56 238.78-32.71Q238.78-33.06 238.73-33.4 238.68-33.74 238.68-34.13L238.68-34.13Q238.98-34.81 239.22-34.84 239.47-34.86 239.66-35.01L239.66-35.01Q240.2-34.91 240.59-35.11L240.59-35.11Q241.22-35.06 241.37-35.25L241.37-35.25Q241.47-35.16 241.64-35.18 241.81-35.21 241.96-35.16L241.96-35.16Q242.1-35.25 242.2-35.35 242.3-35.45 242.49-35.55L242.49-35.55Q243.03-35.84 243.13-35.91 243.23-35.99 243.37-36.08L243.37-36.08Q243.62-36.08 243.69-35.94 243.76-35.79 244.01-35.79L244.01-35.79Q244.1-35.6 244.25-35.4 244.4-35.21 244.59-35.11L244.59-35.11Q244.98-34.28 245.52-33.69L245.52-33.69Q245.96-32.42 246.52-31.25 247.08-30.08 247.72-28.91L247.72-28.91Q247.72-28.76 247.77-28.54 247.82-28.32 247.86-28.22L247.86-28.22Q248.11-27.69 248.57-26.83 249.04-25.98 249.38-25.44L249.38-25.44Q249.48-25.24 249.62-25.1 249.77-24.95 249.87-24.76L249.87-24.76Q250.01-24.51 250.11-24.22 250.21-23.93 250.35-23.68L250.35-23.68Q250.6-23.1 250.92-22.53 251.23-21.97 251.58-21.39L251.58-21.39Q251.67-21.09 251.8-20.8 251.92-20.51 252.06-20.21L252.06-20.21Q252.45-19.34 252.77-18.87 253.09-18.41 253.24-17.87L253.24-17.87Q253.58-17.48 253.77-17.02 253.97-16.55 254.36-16.26L254.36-16.26Q254.41-16.5 254.46-17.7 254.51-18.9 254.51-20.31 254.51-21.73 254.51-23 254.51-24.27 254.51-24.71L254.51-24.71Q254.51-26.03 254.46-27.32 254.41-28.61 254.41-29.88L254.41-29.88Q254.41-30.91 254.43-31.96 254.46-33.01 254.51-34.03L254.51-34.03Q254.55-34.57 254.53-35.03 254.51-35.5 254.55-35.99L254.55-35.99Q254.6-36.23 254.75-36.47 254.9-36.72 254.99-36.96L254.99-36.96Q255.63-37.06 255.97-36.72L255.97-36.72Q256.26-36.87 256.68-36.87 257.09-36.87 257.39-36.91L257.39-36.91Q257.78-36.96 257.83-36.99 257.87-37.01 257.97-37.01L257.97-37.01Q258.17-36.91 258.34-36.87 258.51-36.82 258.75-36.72L258.75-36.72Q259.19-36.87 259.49-36.67ZM364.86-13.33L364.86-13.33Q364.96-13.09 365.6-12.28 366.23-11.47 367.04-10.52 367.84-9.57 368.62-8.69 369.4-7.81 369.7-7.42L369.7-7.42Q370.62-6.05 371.6-4.74 372.58-3.42 373.46-2L373.46-2Q373.7-1.76 373.85-1.39 373.99-1.03 373.99-0.63L373.99-0.63Q373.99-0.2 373.77-0.17 373.55-0.15 373.31-0.05L373.31-0.05Q372.82 0.29 372.43 0.34 372.04 0.39 371.8 0.39L371.8 0.39Q371.26 0.39 370.62 0.37 369.99 0.34 369.55 0.44L369.55 0.44Q369.4 0.49 369.21 0.61 369.01 0.73 368.92 0.73L368.92 0.73Q368.53 0.73 368.35 0.61 368.18 0.49 367.89 0.39L367.89 0.39Q367.5-0.05 367.18-0.54 366.87-1.03 366.52-1.51L366.52-1.51Q366.23-1.86 365.89-2.12 365.55-2.39 365.25-2.78L365.25-2.78Q364.47-3.91 363.67-4.93 362.86-5.96 362.03-6.98L362.03-6.98Q361.64-7.52 361.18-8.01 360.71-8.5 360.32-8.98L360.32-8.98Q359.93-9.52 359.59-10.11 359.25-10.69 358.86-11.23L358.86-11.23Q358.56-11.72 358.03-12.43 357.49-13.13 356.9-13.87 356.32-14.6 355.71-15.26 355.1-15.92 354.66-16.26L354.66-16.26Q354.66-16.6 354.46-16.75 354.27-16.89 354.02-17.09L354.02-17.09Q353.93-17.33 353.78-17.55 353.63-17.77 353.63-18.07L353.63-18.07Q353.63-18.26 353.68-18.41 353.73-18.55 353.78-18.7L353.78-18.7Q353.88-18.9 353.9-19.07 353.93-19.24 354.02-19.43L354.02-19.43Q354.27-20.07 354.73-20.56 355.2-21.04 355.44-21.68L355.44-21.68Q355.49-21.88 355.49-22.05 355.49-22.22 355.59-22.41L355.59-22.41Q355.73-22.71 356.03-23 356.32-23.29 356.56-23.63L356.56-23.63Q356.81-24.07 357.05-24.51 357.29-24.95 357.54-25.39L357.54-25.39Q358.22-26.51 359.05-27.56 359.88-28.61 360.62-29.64L360.62-29.64Q361.3-30.62 361.88-31.57 362.47-32.52 363.15-33.5L363.15-33.5Q363.5-33.98 363.94-34.59 364.37-35.21 364.84-35.79 365.3-36.38 365.79-36.89 366.28-37.4 366.77-37.65L366.77-37.65Q367.6-37.74 367.84-37.38 368.09-37.01 368.53-37.01L368.53-37.01Q369.21-36.87 369.45-36.57 369.7-36.28 369.94-36.04L369.94-36.04Q370.58-36.04 371.02-35.79 371.45-35.55 371.89-35.06L371.89-35.06Q371.7-34.52 371.38-34.08 371.06-33.64 370.82-33.15L370.82-33.15Q370.43-33.01 370.26-32.67 370.09-32.32 369.75-32.08L369.75-32.08Q369.21-31.25 368.67-30.44 368.13-29.64 367.6-28.91L367.6-28.91Q367.35-28.61 367.04-28.44 366.72-28.27 366.52-27.93L366.52-27.93Q366.43-27.78 366.38-27.61 366.33-27.44 366.23-27.29L366.23-27.29Q365.64-26.37 364.91-25.49 364.18-24.61 363.64-23.63L363.64-23.63Q363.4-23.29 363.25-22.92 363.11-22.56 362.91-22.22L362.91-22.22Q362.71-21.92 362.35-21.39 361.98-20.85 361.62-20.29 361.25-19.73 360.98-19.21 360.71-18.7 360.71-18.36L360.71-18.36Q360.76-18.12 361.35-17.38 361.93-16.65 362.64-15.82 363.35-14.99 364.01-14.26 364.67-13.53 364.86-13.33ZM436.08-19.38L436.08-19.38Q435.98-19.19 435.89-19.02 435.79-18.85 435.74-18.65L435.74-18.65Q435.94-18.46 436.11-18.24 436.28-18.02 436.28-17.77L436.28-17.77Q436.28-17.58 436.2-17.41 436.13-17.24 436.18-17.09L436.18-17.09Q435.98-16.75 435.76-16.46 435.55-16.16 435.45-15.82L435.45-15.82Q435.25-15.63 435.13-15.43 435.01-15.23 434.91-15.04L434.91-15.04Q434.67-14.94 434.59-14.72 434.52-14.5 434.32-14.36L434.32-14.36Q434.28-14.16 433.84-13.43 433.4-12.7 432.86-11.87 432.32-11.04 431.83-10.25 431.35-9.47 431.15-9.23L431.15-9.23Q431.05-8.98 430.93-8.84 430.81-8.69 430.66-8.5L430.66-8.5Q430.56-8.35 430.52-8.18 430.47-8.01 430.37-7.91L430.37-7.91Q430.27-7.71 430.15-7.57 430.03-7.42 429.93-7.18L429.93-7.18Q429.44-6.54 428.95-5.66 428.46-4.79 428.03-4.1L428.03-4.1Q427.78-3.71 427.56-3.32 427.34-2.93 427.1-2.54L427.1-2.54Q426.85-2.15 426.61-1.81 426.37-1.46 426.12-1.07L426.12-1.07Q425.73-0.78 425.44-0.37 425.14 0.05 424.75 0.34L424.75 0.34Q424.12 0.34 423.97-0.24L423.97-0.24Q423.34-0.39 423.34-0.24 423.34-0.1 423.34 0L423.34 0Q423.14 0.1 423.07 0.29 423 0.49 422.8 0.59L422.8 0.59Q422.41 0.49 422.14 0.27 421.87 0.05 421.38 0.1L421.38 0.1Q421.19-0.2 420.95-0.42 420.7-0.63 420.51-0.88L420.51-0.88Q420.41-1.17 420.24-1.37 420.07-1.56 419.92-1.76L419.92-1.76Q419.77-2 419.63-2.2 419.48-2.39 419.33-2.59L419.33-2.59Q418.99-3.03 418.67-3.44 418.36-3.86 418.11-4.3L418.11-4.3Q417.72-4.88 417.36-5.49 416.99-6.1 416.6-6.69L416.6-6.69Q416.4-6.98 416.21-7.28 416.01-7.57 415.87-7.86L415.87-7.86Q415.77-8.11 415.6-8.45 415.43-8.79 415.18-8.89L415.18-8.89Q415.09-9.28 414.84-9.47 414.6-9.67 414.35-9.96L414.35-9.96Q414.01-10.35 413.72-10.82 413.43-11.28 413.13-11.77L413.13-11.77Q412.16-13.13 411.3-14.45 410.45-15.77 409.62-17.19L409.62-17.19Q409.86-17.97 409.86-18.36 409.86-18.75 410.11-18.99L410.11-18.99Q410.11-19.19 410.2-19.58L410.2-19.58Q410.84-20.65 411.42-21.53L411.42-21.53Q411.96-22.36 412.18-22.9 412.4-23.44 412.64-24.02L412.64-24.02Q412.89-24.17 413.04-24.39 413.18-24.61 413.43-24.8L413.43-24.8Q413.52-25.34 413.87-25.71 414.21-26.07 414.3-26.61L414.3-26.61Q414.74-26.95 414.79-27.39L414.79-27.39Q415.43-27.83 415.57-28.56L415.57-28.56Q415.96-28.96 416.23-29.44 416.5-29.93 416.75-30.47L416.75-30.47Q417.33-30.96 417.67-31.74L417.67-31.74Q417.97-31.93 418.11-32.28 418.26-32.62 418.5-32.86L418.5-32.86Q418.89-33.5 419.11-33.91 419.33-34.33 419.58-34.77L419.58-34.77Q419.92-34.77 420.02-35.01 420.12-35.25 420.41-35.21L420.41-35.21Q420.41-35.64 420.65-35.99L420.65-35.99Q420.75-36.04 420.95-36.11 421.14-36.18 421.14-36.28L421.14-36.28Q421.04-36.87 421.19-36.96 421.34-37.06 421.43-37.16L421.43-37.16Q421.97-37.06 422.17-37.01 422.36-36.96 422.8-36.67L422.8-36.67Q423.29-36.67 423.48-36.47 423.68-36.28 423.92-36.18L423.92-36.18Q424.12-35.99 424.24-35.79 424.36-35.6 424.61-35.5L424.61-35.5Q425-34.96 425.44-34.33 425.88-33.69 426.27-33.15L426.27-33.15Q426.8-32.42 427.37-31.76 427.93-31.1 428.42-30.32L428.42-30.32Q428.56-30.08 428.95-29.47 429.34-28.86 429.83-28.17 430.32-27.49 430.71-26.93 431.1-26.37 431.25-26.27L431.25-26.27Q431.39-26.03 431.88-25.34 432.37-24.66 432.93-23.9 433.49-23.14 434.03-22.46 434.57-21.78 434.76-21.58L434.76-21.58Q435.3-20.85 435.57-20.39 435.84-19.92 436.08-19.38ZM424.9-10.21L424.9-10.21Q425.44-10.94 425.73-11.52 426.02-12.11 426.32-12.7L426.32-12.7Q426.8-13.28 426.9-13.53 427-13.77 427.15-14.01L427.15-14.01Q427.54-14.6 427.95-15.19 428.37-15.77 428.61-16.46L428.61-16.46Q428.9-16.65 429.05-16.94 429.2-17.24 429.49-17.48L429.49-17.48Q429.2-18.51 428.81-19.07 428.42-19.63 428.03-20.17L428.03-20.17Q427.88-20.41 427.73-20.65 427.59-20.9 427.44-21.14L427.44-21.14Q427.24-21.29 427.12-21.44 427-21.58 426.85-21.73L426.85-21.73Q426.76-21.97 426.56-22.36L426.56-22.36Q426.37-22.61 426.17-22.8 425.97-23 425.83-23.29L425.83-23.29Q425.63-23.49 425.34-23.83 425.05-24.17 424.73-24.58 424.41-25 424.17-25.37 423.92-25.73 423.78-25.98L423.78-25.98Q423.68-26.22 423.61-26.39 423.53-26.56 423.44-26.76L423.44-26.76Q423.19-27.1 422.95-27.37 422.7-27.64 422.46-27.98L422.46-27.98Q422.31-27.88 422.19-27.86 422.07-27.83 421.97-27.73L421.97-27.73Q421.63-27.1 421.21-26.56 420.8-26.03 420.41-25.39L420.41-25.39Q420.07-24.8 419.72-24.19 419.38-23.58 419.04-23L419.04-23Q418.8-22.66 418.58-22.34 418.36-22.02 418.11-21.63L418.11-21.63Q417.87-21.29 417.7-20.92 417.53-20.56 417.28-20.21L417.28-20.21Q416.89-19.73 416.65-19.34 416.4-18.95 416.16-18.41L416.16-18.41Q416.31-18.12 416.62-17.6 416.94-17.09 417.28-16.58 417.63-16.06 417.89-15.63 418.16-15.19 418.21-15.04L418.21-15.04Q418.6-14.7 418.85-14.28 419.09-13.87 419.48-13.48L419.48-13.48Q419.68-13.09 419.92-12.79 420.16-12.5 420.41-12.16L420.41-12.16Q420.65-11.82 421.04-11.16 421.43-10.5 421.82-9.81 422.21-9.13 422.61-8.54 423-7.96 423.24-7.81L423.24-7.81Q423.73-8.35 424.05-9.01 424.36-9.67 424.9-10.21ZM475.61 0.59L475.61 0.59Q475.42 0.39 475.42 0.05L475.42 0.05Q475.42-0.2 475.44-0.37 475.47-0.54 475.51-0.78L475.51-0.78Q475.76-1.9 475.76-3.05 475.76-4.2 475.86-5.32L475.86-5.32Q475.9-6.01 475.93-6.69 475.95-7.37 475.95-8.06L475.95-8.06Q475.95-12.11 475.71-16.14 475.47-20.17 475.47-24.27L475.47-24.27Q475.47-27.1 475.56-29.96 475.66-32.81 475.71-35.69L475.71-35.69Q476.15-35.94 476.78-35.89 477.42-35.84 477.81-36.33L477.81-36.33Q478.05-36.38 478.3-36.35 478.54-36.33 478.79-36.33L478.79-36.33Q479.32-36.33 479.81-36.67 480.3-37.01 480.89-37.26L480.89-37.26Q481.18-37.16 481.3-37.18 481.42-37.21 481.57-37.21L481.57-37.21Q481.72-37.21 482.2-36.87 482.69-36.52 483.28-36.08 483.86-35.64 484.38-35.25 484.89-34.86 485.04-34.77L485.04-34.77Q486.26-33.84 487.21-32.74 488.16-31.64 489.09-30.52L489.09-30.52Q489.97-29.39 490.99-28.25 492.02-27.1 492.99-26.12L492.99-26.12Q493.34-25.73 493.7-25.44 494.07-25.15 494.41-24.76L494.41-24.76Q494.56-24.56 494.68-24.34 494.8-24.12 494.95-23.88L494.95-23.88Q495.24-23.54 495.63-23.29 496.02-23.05 496.36-22.71L496.36-22.71Q496.61-22.51 497.1-21.92 497.58-21.34 497.58-21.04L497.58-21.04Q497.58-20.85 497.49-20.7 497.39-20.56 497.29-20.36L497.29-20.36Q497.24-20.21 497.24-19.92 497.24-19.63 497.19-19.53L497.19-19.53Q496.71-19.14 496.66-19.04 496.61-18.95 496.51-18.85L496.51-18.85Q496.36-18.65 496.14-18.53 495.92-18.41 495.83-18.16L495.83-18.16Q495.73-18.02 495.75-17.87 495.78-17.72 495.68-17.53L495.68-17.53Q495.44-16.99 494.9-16.5 494.36-16.02 493.97-15.43L493.97-15.43Q493.43-14.55 492.9-13.67 492.36-12.79 491.68-11.96L491.68-11.96Q491.38-11.57 491.07-11.21 490.75-10.84 490.46-10.45L490.46-10.45Q490.21-10.16 490.02-9.84 489.82-9.52 489.58-9.13L489.58-9.13Q489.04-8.45 488.55-7.79 488.06-7.13 487.53-6.45L487.53-6.45Q486.94-5.62 486.26-4.81 485.57-4 485.04-3.17L485.04-3.17Q484.5-2.29 483.91-1.56 483.33-0.83 482.64-0.15L482.64-0.15Q482.45 0 482.15 0.29 481.86 0.59 481.57 0.59L481.57 0.59Q481.37 0.59 481.25 0.44 481.13 0.29 480.89 0.29L480.89 0.29Q480.84 0.29 480.59 0.34 480.35 0.39 480.01 0.44L480.01 0.44 479.13 0.54Q478.35 0.93 478 0.9 477.66 0.88 477.32 0.93L477.32 0.93Q477.13 0.98 477 1.07 476.88 1.17 476.73 1.17L476.73 1.17Q476.39 1.17 476.2 0.85 476 0.54 475.61 0.59ZM490.26-20.51L490.26-20.51Q490.26-20.75 489.8-21.19 489.33-21.63 489.09-21.83L489.09-21.83Q488.75-22.12 488.28-22.39 487.82-22.66 487.53-23L487.53-23Q487.28-23.29 487.06-23.61 486.84-23.93 486.6-24.22L486.6-24.22Q485.72-25.2 484.82-26.17 483.91-27.15 483.23-28.32L483.23-28.32Q482.79-28.61 482.4-29 482.01-29.39 481.47-29.64L481.47-29.64Q481.37-29.35 481.4-29.03 481.42-28.71 481.42-28.42L481.42-28.42Q481.42-27.29 481.32-26.22 481.23-25.15 481.23-24.07L481.23-24.07Q481.23-21.44 481.35-18.87 481.47-16.31 481.47-13.72L481.47-13.72Q481.47-12.74 481.5-11.77 481.52-10.79 481.67-9.81L481.67-9.81Q481.57-9.52 481.57-9.28L481.57-9.28Q481.57-9.03 481.67-8.64L481.67-8.64Q482.06-8.89 482.33-9.25 482.59-9.62 482.84-9.96L482.84-9.96Q483.67-11.04 484.47-12.13 485.28-13.23 486.11-14.36L486.11-14.36Q486.65-15.09 487.21-15.8 487.77-16.5 488.31-17.29L488.31-17.29Q488.45-17.48 488.77-17.97 489.09-18.46 489.41-18.97 489.72-19.48 489.99-19.92 490.26-20.36 490.26-20.51ZM553.37-6.84L553.37-6.84Q553.76-6.2 553.96-5.62 554.16-5.03 554.16-4.79L554.16-4.79Q554.16-4.44 554.03-4.22 553.91-4 553.72-3.76L553.72-3.76Q551.76-2.93 549.83-2.22 547.91-1.51 545.9-0.83L545.9-0.83Q545.41-0.68 544.95-0.51 544.49-0.34 543.95-0.24L543.95-0.24Q543.85-0.15 543.61-0.05 543.36 0.05 543.05 0.15 542.73 0.24 542.44 0.32 542.14 0.39 542.05 0.39L542.05 0.39Q541.95 0.15 541.85 0.1 541.75 0.05 541.66 0L541.66 0Q541.41 0 541.34 0.17 541.26 0.34 541.02 0.44L541.02 0.44Q540.78 0.44 540.58 0.46 540.39 0.49 540.24 0.39L540.24 0.39Q539.85 0.49 539.53 0.73 539.21 0.98 538.82 1.07L538.82 1.07Q538.09 0.88 537.92 0.9 537.75 0.93 537.55 0.98L537.55 0.98Q537.21 0.68 537.24 0.15 537.26-0.39 536.97-0.73L536.97-0.73Q536.97-1.37 536.87-1.44 536.77-1.51 536.77-1.61L536.77-1.61Q536.77-1.95 536.82-2.25 536.87-2.54 536.77-2.88L536.77-2.88Q536.97-3.71 536.92-4.49 536.87-5.27 536.97-6.05L536.97-6.05Q536.97-6.3 536.99-6.52 537.02-6.74 537.02-6.98L537.02-6.98Q537.02-7.71 537.11-7.89 537.21-8.06 537.21-8.3L537.21-8.3Q537.21-8.64 537.19-8.96 537.16-9.28 537.16-9.67L537.16-9.67Q537.16-10.35 537.19-11.01 537.21-11.67 537.21-12.4L537.21-12.4Q537.21-14.26 536.97-16.11 536.72-17.97 536.72-19.82L536.72-19.82Q536.72-22.07 536.48-24.27 536.24-26.46 536.24-28.71L536.24-28.71Q536.24-29.1 536.24-29.81 536.24-30.52 536.24-31.27 536.24-32.03 536.26-32.71 536.28-33.4 536.33-33.69L536.33-33.69Q536.33-33.74 536.63-33.84 536.92-33.94 537.02-33.94L537.02-33.94Q537.26-33.94 537.41-33.81 537.55-33.69 537.75-33.59L537.75-33.59Q538.63-33.69 538.8-33.76 538.97-33.84 539.07-33.84L539.07-33.84Q539.36-33.84 539.53-33.69 539.7-33.54 539.8-33.54L539.8-33.54Q540.63-33.74 540.7-33.59 540.78-33.45 541.02-33.45L541.02-33.45Q541.66-33.64 541.8-33.59 541.95-33.54 542.09-33.54L542.09-33.54Q542.34-33.54 542.63-33.72 542.92-33.89 543.17-33.98L543.17-33.98Q544-34.23 544.54-34.47L544.54-34.47Q545.27-34.91 545.63-35.06 546-35.21 546.39-35.4L546.39-35.4Q547.22-35.74 547.98-36.11 548.74-36.47 549.57-36.87L549.57-36.87Q549.71-36.87 549.88-36.89 550.05-36.91 550.15-37.01L550.15-37.01Q550.3-36.96 550.47-36.96 550.64-36.96 550.79-36.96L550.79-36.96Q551.27-36.77 551.42-36.72L551.42-36.72Q551.62-36.43 551.79-36.16 551.96-35.89 552.2-35.64L552.2-35.64Q552.45-35.21 552.59-35.21L552.59-35.21Q552.59-35.06 552.45-34.89 552.3-34.72 552.3-34.57L552.3-34.57Q552.69-33.89 552.93-33.3 553.18-32.71 553.18-32.47L553.18-32.47Q553.18-32.13 553.08-31.91 552.98-31.69 552.84-31.45L552.84-31.45Q550.98-30.57 549.1-29.71 547.22-28.86 545.27-28.03L545.27-28.03Q544.78-27.83 544.34-27.61 543.9-27.39 543.36-27.29L543.36-27.29Q543.27-27.2 542.92-27.12 542.58-27.05 542.39-27.05L542.39-27.05Q542.49-26.22 542.51-25.42 542.53-24.61 542.58-23.78L542.58-23.78Q542.63-23.1 542.75-22.34 542.88-21.58 542.97-20.85L542.97-20.85Q544.58-21.53 546.17-22.22 547.76-22.9 549.37-23.58L549.37-23.58Q549.66-23.54 549.98-23.49 550.3-23.44 550.59-23.34L550.59-23.34Q550.69-23.24 550.79-23.1 550.88-22.95 551.03-22.85L551.03-22.85Q550.98-22.61 551.35-22.12 551.71-21.63 551.71-21.39L551.71-21.39Q551.71-21 551.81-20.92 551.91-20.85 552.01-20.51L552.01-20.51Q552.06-20.02 552.01-19.97L552.01-19.97Q552.25-19.73 552.4-19.48 552.54-19.24 552.54-18.9L552.54-18.9Q551.86-18.07 551.18-17.8 550.49-17.53 549.81-17.24L549.81-17.24Q549.57-17.14 549.3-16.97 549.03-16.8 548.78-16.7L548.78-16.7Q548.39-16.55 548.03-16.43 547.66-16.31 547.27-16.11L547.27-16.11Q546.64-15.77 545.98-15.36 545.32-14.94 544.63-14.79L544.63-14.79Q544.1-14.65 543.93-14.48 543.75-14.31 543.36-14.01L543.36-14.01 543.36-12.7 543.36-10.25Q543.36-9.77 543.36-9.25 543.36-8.74 543.32-8.2L543.32-8.2Q543.22-7.71 543.22-7.37L543.22-7.37 543.22-6.59Q543.46-6.69 543.71-6.76 543.95-6.84 544.19-6.93L544.19-6.93Q544.39-6.98 544.56-6.98 544.73-6.98 544.93-7.08L544.93-7.08Q545.17-7.13 545.32-7.18 545.46-7.23 545.66-7.32L545.66-7.32Q546.39-7.71 546.78-7.84 547.17-7.96 547.56-8.11L547.56-8.11Q548.39-8.4 549.17-8.72 549.96-9.03 550.74-9.33L550.74-9.33Q551.23-9.23 551.42-9.47L551.42-9.47Q551.66-9.42 551.84-9.38 552.01-9.33 552.25-9.33L552.25-9.33Q552.84-8.79 552.98-8.5 553.13-8.2 553.37-7.96L553.37-7.96Q553.62-7.52 553.72-7.52L553.72-7.52Q553.72-7.42 553.57-7.2 553.42-6.98 553.37-6.84Z" opacity="1" transform="matrix(1,0,0,1,0,0)" fill="#bb84e8" class="undefined-text-1" data-fill-palette-color="secondary" id="text-1"></path></svg></g></svg></g></svg></g></svg></g><g></g></svg></g></svg></g></svg></g></svg></g><defs></defs></svg><rect width="395.52" height="247.2" fill="none" stroke="none" visibility="hidden"></rect></g></svg></g></svg>